<svg width="26" height="26" viewBox="0 0 26 26" fill="none" xmlns="http://www.w3.org/2000/svg">
<path d="M18.9583 7.04165L17.875 8.12498M3.24997 22.75C2.52775 22.0278 6.78345 15.994 16.0171 4.64857C16.3462 4.2444 16.7551 3.91242 17.2182 3.67337C17.6814 3.43431 18.1888 3.29332 18.7089 3.25918C19.229 3.22504 19.7506 3.2985 20.241 3.47496C20.7314 3.65143 21.1802 3.92711 21.5593 4.28479C21.9384 4.64247 22.2397 5.07447 22.4444 5.55382C22.649 6.03316 22.7527 6.54956 22.7488 7.07075C22.745 7.59195 22.6337 8.10675 22.422 8.58302C22.2102 9.05928 21.9026 9.48678 21.5182 9.83882C10.0623 19.1685 3.97292 23.4722 3.24997 22.75Z" stroke="#7F122A" stroke-width="2" stroke-linecap="round" stroke-linejoin="round"/>
</svg>
