<svg width="26" height="26" viewBox="0 0 26 26" fill="none" xmlns="http://www.w3.org/2000/svg">
<path d="M20.8002 15.8253C19.7602 14.8547 19.1362 14.5253 18.2002 14.5253C17.0562 14.5253 16.3802 15.028 14.8375 16.5707C13.7802 17.628 13.2949 17.992 13.0002 17.992C12.7055 17.992 12.2202 17.628 11.1629 16.5707C9.6202 15.028 8.9442 14.5253 7.8002 14.5253C6.8642 14.5253 6.2402 14.8547 5.2002 15.8253V15.6C5.2002 10.972 10.4002 12.1333 10.4002 8.66668C10.4002 6.36134 9.23886 5.20001 6.93353 5.20001V3.46667H19.0669V5.20001C16.7615 5.20001 15.6002 6.36134 15.6002 8.66668C15.6002 12.1333 20.8002 10.972 20.8002 15.6V15.8253ZM20.2629 18.3213C19.5175 20.0893 17.9575 21.4933 15.6002 22.5333H10.4002C8.04286 21.4933 6.48286 20.0893 5.73753 18.3213L5.96286 18.096C7.0202 17.0387 7.50553 16.692 7.8002 16.692C8.09486 16.692 8.5802 17.0387 9.63753 18.096C11.1802 19.6387 11.8562 20.1587 13.0002 20.1587C14.1442 20.1587 14.8202 19.6387 16.3629 18.096C17.4202 17.0387 17.9055 16.692 18.2002 16.692C18.4949 16.692 18.9802 17.0387 20.0375 18.096L20.2629 18.3213Z" fill="#7F122A"/>
</svg>
