<svg width="26" height="26" viewBox="0 0 26 26" fill="none" xmlns="http://www.w3.org/2000/svg">
<path fill-rule="evenodd" clip-rule="evenodd" d="M6.5 4.0625C6.5 3.84701 6.5856 3.64035 6.73798 3.48798C6.89035 3.3356 7.09701 3.25 7.3125 3.25H21.9375C22.153 3.25 22.3597 3.3356 22.512 3.48798C22.6644 3.64035 22.75 3.84701 22.75 4.0625V10.5625C22.75 10.778 22.6644 10.9847 22.512 11.137C22.3597 11.2894 22.153 11.375 21.9375 11.375H7.3125C7.09701 11.375 6.89035 11.2894 6.73798 11.137C6.5856 10.9847 6.5 10.778 6.5 10.5625V8.125H4.875V13H13C13.2155 13 13.4222 13.0856 13.5745 13.238C13.7269 13.3903 13.8125 13.597 13.8125 13.8125V16.25H14.625C14.8405 16.25 15.0472 16.3356 15.1995 16.488C15.3519 16.6403 15.4375 16.847 15.4375 17.0625V22.75C15.4375 22.9655 15.3519 23.1722 15.1995 23.3245C15.0472 23.4769 14.8405 23.5625 14.625 23.5625H11.375C11.1595 23.5625 10.9528 23.4769 10.8005 23.3245C10.6481 23.1722 10.5625 22.9655 10.5625 22.75V17.0625C10.5625 16.847 10.6481 16.6403 10.8005 16.488C10.9528 16.3356 11.1595 16.25 11.375 16.25H12.1875V14.625H4.0625C3.84701 14.625 3.64035 14.5394 3.48798 14.387C3.3356 14.2347 3.25 14.028 3.25 13.8125V7.3125C3.25 7.09701 3.3356 6.89035 3.48798 6.73798C3.64035 6.5856 3.84701 6.5 4.0625 6.5H6.5V4.0625Z" fill="#7F122A"/>
</svg>
