<svg width="18" height="22" viewBox="0 0 18 22" fill="none" xmlns="http://www.w3.org/2000/svg">
<path d="M8.12464 0C6.87176 0 5.72451 0.2925 4.83401 0.82875C3.94189 1.36337 3.24964 2.21 3.24964 3.25V6.5C3.24964 6.656 3.18789 6.84612 3.01239 6.73725L1.38739 5.11225C1.23482 4.9599 1.02799 4.8744 0.812377 4.87455C0.596769 4.8747 0.390052 4.9605 0.237702 5.11306C0.0853519 5.26563 -0.000152168 5.47247 2.033e-07 5.68807C0.000152575 5.90368 0.0859488 6.1104 0.238515 6.26275L1.86351 7.88775C2.67601 8.70025 3.24964 9.20887 3.24964 10.5625V17.875C3.24964 18.915 3.94189 19.7616 4.83401 20.2962C5.72451 20.8325 6.87176 21.125 8.12464 21.125C9.37751 21.125 10.5248 20.8325 11.4153 20.2962C12.3074 19.7616 12.9996 18.915 12.9996 17.875V15.4375C12.9996 13.1804 13.7634 11.3019 15.0748 10.426L17.5123 8.801C17.6045 8.74343 17.6842 8.66794 17.7467 8.57901C17.8092 8.49008 17.8532 8.3895 17.8762 8.28325C17.8991 8.17699 17.9005 8.06721 17.8802 7.96041C17.86 7.85361 17.8185 7.75196 17.7583 7.66148C17.698 7.57099 17.6202 7.49352 17.5295 7.43365C17.4388 7.37377 17.3369 7.33272 17.2301 7.3129C17.1232 7.29309 17.0134 7.29493 16.9072 7.3183C16.8011 7.34168 16.7007 7.38612 16.612 7.449L14.1485 9.09025C13.4286 9.56962 12.9996 8.92775 12.9996 8.4565V3.25C12.9996 2.21 12.3074 1.36337 11.4153 0.82875C10.5248 0.2925 9.37751 0 8.12464 0ZM8.12464 1.625C9.11589 1.625 9.99989 1.87525 10.5784 2.22138C11.1569 2.56913 11.3746 2.94287 11.3746 3.25C11.3746 3.55713 11.1569 3.9325 10.5784 4.27863C9.99989 4.62475 9.11589 4.875 8.12464 4.875C7.13339 4.875 6.24939 4.62475 5.67089 4.27863C5.09239 3.93087 4.87464 3.55713 4.87464 3.25C4.87464 2.94287 5.09239 2.5675 5.67089 2.22138C6.24939 1.87525 7.13339 1.625 8.12464 1.625Z" fill="#7F122A"/>
</svg>
