<svg width="26" height="26" viewBox="0 0 26 26" fill="none" xmlns="http://www.w3.org/2000/svg">
<path d="M6.49951 4.25H13.7427C14.8917 4.24999 16.0298 4.47634 17.0913 4.91602C18.1528 5.35571 19.1177 6.00007 19.9302 6.8125L20.6421 7.52441C20.6499 7.5322 20.6555 7.54178 20.6597 7.55176L20.6665 7.58398V8.66699C20.6664 8.68898 20.6576 8.71004 20.6421 8.72559C20.6265 8.74114 20.6055 8.74991 20.5835 8.75H15.2495V22.75C15.2495 22.7721 15.2407 22.793 15.2251 22.8086C15.2095 22.8242 15.1886 22.833 15.1665 22.833H11.9165C11.8944 22.833 11.8735 22.8242 11.8579 22.8086C11.8423 22.793 11.8335 22.7721 11.8335 22.75V8.75H6.49951C6.47753 8.74991 6.45647 8.74114 6.44092 8.72559C6.42537 8.71003 6.41659 8.68898 6.4165 8.66699V4.33301C6.41659 4.31102 6.42537 4.28997 6.44092 4.27441C6.45647 4.25886 6.47753 4.25009 6.49951 4.25Z" stroke="#7F122A" stroke-width="2"/>
</svg>
