<svg width="26" height="26" viewBox="0 0 26 26" fill="none" xmlns="http://www.w3.org/2000/svg">
<path d="M14.0366 7.49316C14.5713 8.41345 15.223 9.26297 15.98 10.0176V10.0186C16.7348 10.7761 17.5857 11.4269 18.5063 11.9619L11.5718 18.8965C10.9286 19.5397 10.6698 19.7963 10.3911 20.0137L10.3901 20.0146C10.1323 20.2163 9.85997 20.3948 9.57373 20.5508L9.28271 20.6992C9.12302 20.7751 8.9571 20.8427 8.72314 20.9268L7.75439 21.2559L3.33057 22.7314H3.32959C3.32121 22.7343 3.31183 22.7353 3.30322 22.7334C3.29458 22.7314 3.2861 22.7269 3.27979 22.7207C3.27346 22.7144 3.26916 22.706 3.26709 22.6973C3.26504 22.6886 3.26525 22.6794 3.26807 22.6709L3.26904 22.6689L4.74365 18.2461H4.74463C5.03187 17.3844 5.1479 17.0378 5.29932 16.7188C5.48748 16.325 5.71859 15.9526 5.98682 15.6084L5.98584 15.6074C6.20312 15.329 6.46037 15.0704 7.10303 14.4277L14.0366 7.49316ZM19.5728 3.2666C20.4107 3.2666 21.2146 3.59993 21.8071 4.19238C22.3997 4.78495 22.7329 5.58875 22.7329 6.42676C22.7329 7.26482 22.3997 8.06853 21.8071 8.66113L21.3501 9.11719C20.357 8.69449 19.4518 8.08579 18.688 7.31738L18.6831 7.3125L18.356 6.96777C17.7394 6.28128 17.2424 5.49718 16.8813 4.64844L17.3384 4.19238C17.9309 3.59986 18.7348 3.26668 19.5728 3.2666Z" stroke="#7F122A" stroke-width="2.2"/>
</svg>
