<svg width="26" height="27" viewBox="0 0 26 27" fill="none" xmlns="http://www.w3.org/2000/svg">
<mask id="path-1-outside-1_271_207" maskUnits="userSpaceOnUse" x="0.621094" y="-0.700012" width="25" height="28" fill="black">
<rect fill="white" x="0.621094" y="-0.700012" width="25" height="28"/>
<path d="M11.4727 0.299988C10.73 0.299988 10.2133 0.683488 9.86553 0.953238L9.74041 1.05074C9.43166 1.29449 9.22041 1.46024 8.92141 1.56261C8.25688 1.78913 7.58482 1.99292 6.90641 2.17361L6.74716 2.21586L6.70653 2.22724L6.69353 2.23049C6.51485 2.27803 6.35773 2.3851 6.24812 2.534C6.1385 2.68291 6.08296 2.86475 6.09066 3.04949L6.85278 20.9245C6.85954 21.0869 6.91488 21.2436 7.01164 21.3743C7.10839 21.5049 7.24212 21.6035 7.39553 21.6574L7.41178 21.6639C7.53458 21.7099 7.65547 21.7608 7.77416 21.8166C8.01791 21.9304 8.33803 22.0961 8.65166 22.3106C9.32928 22.7754 9.74528 23.2986 9.74528 23.8349V25.4599C9.74528 25.6754 9.83088 25.882 9.98326 26.0344C10.1356 26.1868 10.3423 26.2724 10.5578 26.2724C10.7733 26.2724 10.9799 26.1868 11.1323 26.0344C11.2847 25.882 11.3703 25.6754 11.3703 25.4599V23.8349C11.3703 22.4455 10.3384 21.4949 9.56653 20.9749C9.21253 20.7369 8.84034 20.5272 8.45341 20.3476H8.45016L7.73841 3.61011L7.89603 3.56299C8.35103 3.43299 8.93603 3.25749 9.44791 3.08036C10.0215 2.88211 10.4554 2.53761 10.7512 2.30199L10.86 2.21586C11.1867 1.96074 11.3199 1.90711 11.4694 1.90711C11.6839 1.90711 11.9017 1.99974 12.0967 2.13786C12.1943 2.20581 12.2842 2.28428 12.3648 2.37186L12.3729 2.37999C12.4492 2.47018 12.5443 2.54264 12.6515 2.59232C12.7587 2.642 12.8755 2.66769 12.9937 2.66761H13.044C13.1622 2.66769 13.2789 2.642 13.3862 2.59232C13.4934 2.54264 13.5885 2.47018 13.6648 2.37999L13.6729 2.37186L13.7249 2.31824C13.7737 2.26949 13.8484 2.20449 13.941 2.13949C14.1219 2.00033 14.3405 1.9188 14.5683 1.90549C14.7145 1.90549 14.8494 1.96236 15.1777 2.21586L15.2849 2.30199C15.579 2.53599 16.0129 2.88211 16.5882 3.08199C17.1 3.25749 17.6867 3.43299 18.14 3.56299L18.2993 3.60849L17.5875 20.346L17.5843 20.3476C17.1973 20.5272 16.8252 20.7369 16.4712 20.9749C15.7025 21.5014 14.6674 22.4504 14.6674 23.8349V25.4599C14.6674 25.6754 14.753 25.882 14.9054 26.0344C15.0578 26.1868 15.2644 26.2724 15.4799 26.2724C15.6954 26.2724 15.9021 26.1868 16.0544 26.0344C16.2068 25.882 16.2924 25.6754 16.2924 25.4599V23.8349C16.2924 23.2986 16.7084 22.7754 17.386 22.3106C17.7749 22.0511 18.1906 21.8342 18.6259 21.6639L18.6422 21.6574C18.7953 21.6036 18.9289 21.5053 19.0256 21.3749C19.1223 21.2446 19.1778 21.0883 19.1849 20.9261L19.9487 3.05111C19.9566 2.86589 19.901 2.6835 19.7911 2.53423C19.6811 2.38495 19.5234 2.27778 19.3442 2.23049L19.3312 2.22724L19.2905 2.21586L19.1329 2.17361L18.5869 2.01924C18.093 1.87982 17.6026 1.7281 17.1163 1.56424C16.8205 1.46024 16.6077 1.29449 16.2973 1.05074L16.1722 0.953238C15.826 0.683488 15.3077 0.299988 14.5634 0.299988H14.513C13.8793 0.299988 13.3609 0.551863 13.0148 0.784238C12.5746 0.477412 12.053 0.308811 11.5165 0.299988L11.4662 0.299988H11.4727ZM21.1252 7.25499C21.1252 7.64986 21.4079 7.98624 21.7979 8.05449L23.8942 8.42336C24.5279 8.42336 24.5279 5.17336 23.8942 5.17336L21.7979 5.54224C21.6096 5.57511 21.439 5.67328 21.316 5.8195C21.1929 5.96572 21.1254 6.15064 21.1252 6.34174V7.25174V7.25499ZM20.8002 12.13C20.8002 12.5249 21.0829 12.8612 21.4729 12.9295L23.5692 13.2984C24.2029 13.2984 24.2029 10.0484 23.5692 10.0484L21.4729 10.4172C21.2847 10.4501 21.114 10.5483 20.991 10.6945C20.8679 10.8407 20.8004 11.0256 20.8002 11.2167V12.1267V12.13ZM20.3127 17.0375C20.3127 17.4324 20.5954 17.7687 20.9854 17.837L23.0817 18.2059C23.7154 18.2059 23.7154 14.9559 23.0817 14.9559L20.9854 15.3247C20.7971 15.3576 20.6265 15.4558 20.5035 15.602C20.3804 15.7482 20.3129 15.9331 20.3127 16.1242V17.0342V17.0375ZM2.09641 8.42499L4.19266 8.05611C4.38091 8.02324 4.55155 7.92507 4.67459 7.77885C4.79763 7.63263 4.8652 7.44771 4.86541 7.25661V6.34661C4.8652 6.15551 4.79763 5.9706 4.67459 5.82438C4.55155 5.67816 4.38091 5.57998 4.19266 5.54711L2.09641 5.17824C1.46266 5.17824 1.46266 8.42824 2.09641 8.42824V8.42499ZM2.42141 13.3L4.51766 12.9311C4.70591 12.8982 4.87655 12.8001 4.99959 12.6538C5.12263 12.5076 5.1902 12.3227 5.19041 12.1316V11.2216C5.1902 11.0305 5.12263 10.8456 4.99959 10.6994C4.87655 10.5532 4.70591 10.455 4.51766 10.4221L2.42141 10.0532C1.78766 10.0532 1.78766 13.3032 2.42141 13.3032V13.3ZM5.02141 17.85L2.92516 18.2189C2.29141 18.2189 2.29141 14.9689 2.92516 14.9689L5.02141 15.3377C5.20966 15.3706 5.3803 15.4688 5.50334 15.615C5.62638 15.7612 5.69395 15.9461 5.69416 16.1372V17.0472C5.69416 17.4421 5.41141 17.7785 5.02141 17.8467V17.85Z"/>
</mask>
<path d="M11.4727 0.299988C10.73 0.299988 10.2133 0.683488 9.86553 0.953238L9.74041 1.05074C9.43166 1.29449 9.22041 1.46024 8.92141 1.56261C8.25688 1.78913 7.58482 1.99292 6.90641 2.17361L6.74716 2.21586L6.70653 2.22724L6.69353 2.23049C6.51485 2.27803 6.35773 2.3851 6.24812 2.534C6.1385 2.68291 6.08296 2.86475 6.09066 3.04949L6.85278 20.9245C6.85954 21.0869 6.91488 21.2436 7.01164 21.3743C7.10839 21.5049 7.24212 21.6035 7.39553 21.6574L7.41178 21.6639C7.53458 21.7099 7.65547 21.7608 7.77416 21.8166C8.01791 21.9304 8.33803 22.0961 8.65166 22.3106C9.32928 22.7754 9.74528 23.2986 9.74528 23.8349V25.4599C9.74528 25.6754 9.83088 25.882 9.98326 26.0344C10.1356 26.1868 10.3423 26.2724 10.5578 26.2724C10.7733 26.2724 10.9799 26.1868 11.1323 26.0344C11.2847 25.882 11.3703 25.6754 11.3703 25.4599V23.8349C11.3703 22.4455 10.3384 21.4949 9.56653 20.9749C9.21253 20.7369 8.84034 20.5272 8.45341 20.3476H8.45016L7.73841 3.61011L7.89603 3.56299C8.35103 3.43299 8.93603 3.25749 9.44791 3.08036C10.0215 2.88211 10.4554 2.53761 10.7512 2.30199L10.86 2.21586C11.1867 1.96074 11.3199 1.90711 11.4694 1.90711C11.6839 1.90711 11.9017 1.99974 12.0967 2.13786C12.1943 2.20581 12.2842 2.28428 12.3648 2.37186L12.3729 2.37999C12.4492 2.47018 12.5443 2.54264 12.6515 2.59232C12.7587 2.642 12.8755 2.66769 12.9937 2.66761H13.044C13.1622 2.66769 13.2789 2.642 13.3862 2.59232C13.4934 2.54264 13.5885 2.47018 13.6648 2.37999L13.6729 2.37186L13.7249 2.31824C13.7737 2.26949 13.8484 2.20449 13.941 2.13949C14.1219 2.00033 14.3405 1.9188 14.5683 1.90549C14.7145 1.90549 14.8494 1.96236 15.1777 2.21586L15.2849 2.30199C15.579 2.53599 16.0129 2.88211 16.5882 3.08199C17.1 3.25749 17.6867 3.43299 18.14 3.56299L18.2993 3.60849L17.5875 20.346L17.5843 20.3476C17.1973 20.5272 16.8252 20.7369 16.4712 20.9749C15.7025 21.5014 14.6674 22.4504 14.6674 23.8349V25.4599C14.6674 25.6754 14.753 25.882 14.9054 26.0344C15.0578 26.1868 15.2644 26.2724 15.4799 26.2724C15.6954 26.2724 15.9021 26.1868 16.0544 26.0344C16.2068 25.882 16.2924 25.6754 16.2924 25.4599V23.8349C16.2924 23.2986 16.7084 22.7754 17.386 22.3106C17.7749 22.0511 18.1906 21.8342 18.6259 21.6639L18.6422 21.6574C18.7953 21.6036 18.9289 21.5053 19.0256 21.3749C19.1223 21.2446 19.1778 21.0883 19.1849 20.9261L19.9487 3.05111C19.9566 2.86589 19.901 2.6835 19.7911 2.53423C19.6811 2.38495 19.5234 2.27778 19.3442 2.23049L19.3312 2.22724L19.2905 2.21586L19.1329 2.17361L18.5869 2.01924C18.093 1.87982 17.6026 1.7281 17.1163 1.56424C16.8205 1.46024 16.6077 1.29449 16.2973 1.05074L16.1722 0.953238C15.826 0.683488 15.3077 0.299988 14.5634 0.299988H14.513C13.8793 0.299988 13.3609 0.551863 13.0148 0.784238C12.5746 0.477412 12.053 0.308811 11.5165 0.299988L11.4662 0.299988H11.4727ZM21.1252 7.25499C21.1252 7.64986 21.4079 7.98624 21.7979 8.05449L23.8942 8.42336C24.5279 8.42336 24.5279 5.17336 23.8942 5.17336L21.7979 5.54224C21.6096 5.57511 21.439 5.67328 21.316 5.8195C21.1929 5.96572 21.1254 6.15064 21.1252 6.34174V7.25174V7.25499ZM20.8002 12.13C20.8002 12.5249 21.0829 12.8612 21.4729 12.9295L23.5692 13.2984C24.2029 13.2984 24.2029 10.0484 23.5692 10.0484L21.4729 10.4172C21.2847 10.4501 21.114 10.5483 20.991 10.6945C20.8679 10.8407 20.8004 11.0256 20.8002 11.2167V12.1267V12.13ZM20.3127 17.0375C20.3127 17.4324 20.5954 17.7687 20.9854 17.837L23.0817 18.2059C23.7154 18.2059 23.7154 14.9559 23.0817 14.9559L20.9854 15.3247C20.7971 15.3576 20.6265 15.4558 20.5035 15.602C20.3804 15.7482 20.3129 15.9331 20.3127 16.1242V17.0342V17.0375ZM2.09641 8.42499L4.19266 8.05611C4.38091 8.02324 4.55155 7.92507 4.67459 7.77885C4.79763 7.63263 4.8652 7.44771 4.86541 7.25661V6.34661C4.8652 6.15551 4.79763 5.9706 4.67459 5.82438C4.55155 5.67816 4.38091 5.57998 4.19266 5.54711L2.09641 5.17824C1.46266 5.17824 1.46266 8.42824 2.09641 8.42824V8.42499ZM2.42141 13.3L4.51766 12.9311C4.70591 12.8982 4.87655 12.8001 4.99959 12.6538C5.12263 12.5076 5.1902 12.3227 5.19041 12.1316V11.2216C5.1902 11.0305 5.12263 10.8456 4.99959 10.6994C4.87655 10.5532 4.70591 10.455 4.51766 10.4221L2.42141 10.0532C1.78766 10.0532 1.78766 13.3032 2.42141 13.3032V13.3ZM5.02141 17.85L2.92516 18.2189C2.29141 18.2189 2.29141 14.9689 2.92516 14.9689L5.02141 15.3377C5.20966 15.3706 5.3803 15.4688 5.50334 15.615C5.62638 15.7612 5.69395 15.9461 5.69416 16.1372V17.0472C5.69416 17.4421 5.41141 17.7785 5.02141 17.8467V17.85Z" fill="#7F122A"/>
<path d="M11.4727 0.299988C10.73 0.299988 10.2133 0.683488 9.86553 0.953238L9.74041 1.05074C9.43166 1.29449 9.22041 1.46024 8.92141 1.56261C8.25688 1.78913 7.58482 1.99292 6.90641 2.17361L6.74716 2.21586L6.70653 2.22724L6.69353 2.23049C6.51485 2.27803 6.35773 2.3851 6.24812 2.534C6.1385 2.68291 6.08296 2.86475 6.09066 3.04949L6.85278 20.9245C6.85954 21.0869 6.91488 21.2436 7.01164 21.3743C7.10839 21.5049 7.24212 21.6035 7.39553 21.6574L7.41178 21.6639C7.53458 21.7099 7.65547 21.7608 7.77416 21.8166C8.01791 21.9304 8.33803 22.0961 8.65166 22.3106C9.32928 22.7754 9.74528 23.2986 9.74528 23.8349V25.4599C9.74528 25.6754 9.83088 25.882 9.98326 26.0344C10.1356 26.1868 10.3423 26.2724 10.5578 26.2724C10.7733 26.2724 10.9799 26.1868 11.1323 26.0344C11.2847 25.882 11.3703 25.6754 11.3703 25.4599V23.8349C11.3703 22.4455 10.3384 21.4949 9.56653 20.9749C9.21253 20.7369 8.84034 20.5272 8.45341 20.3476H8.45016L7.73841 3.61011L7.89603 3.56299C8.35103 3.43299 8.93603 3.25749 9.44791 3.08036C10.0215 2.88211 10.4554 2.53761 10.7512 2.30199L10.86 2.21586C11.1867 1.96074 11.3199 1.90711 11.4694 1.90711C11.6839 1.90711 11.9017 1.99974 12.0967 2.13786C12.1943 2.20581 12.2842 2.28428 12.3648 2.37186L12.3729 2.37999C12.4492 2.47018 12.5443 2.54264 12.6515 2.59232C12.7587 2.642 12.8755 2.66769 12.9937 2.66761H13.044C13.1622 2.66769 13.2789 2.642 13.3862 2.59232C13.4934 2.54264 13.5885 2.47018 13.6648 2.37999L13.6729 2.37186L13.7249 2.31824C13.7737 2.26949 13.8484 2.20449 13.941 2.13949C14.1219 2.00033 14.3405 1.9188 14.5683 1.90549C14.7145 1.90549 14.8494 1.96236 15.1777 2.21586L15.2849 2.30199C15.579 2.53599 16.0129 2.88211 16.5882 3.08199C17.1 3.25749 17.6867 3.43299 18.14 3.56299L18.2993 3.60849L17.5875 20.346L17.5843 20.3476C17.1973 20.5272 16.8252 20.7369 16.4712 20.9749C15.7025 21.5014 14.6674 22.4504 14.6674 23.8349V25.4599C14.6674 25.6754 14.753 25.882 14.9054 26.0344C15.0578 26.1868 15.2644 26.2724 15.4799 26.2724C15.6954 26.2724 15.9021 26.1868 16.0544 26.0344C16.2068 25.882 16.2924 25.6754 16.2924 25.4599V23.8349C16.2924 23.2986 16.7084 22.7754 17.386 22.3106C17.7749 22.0511 18.1906 21.8342 18.6259 21.6639L18.6422 21.6574C18.7953 21.6036 18.9289 21.5053 19.0256 21.3749C19.1223 21.2446 19.1778 21.0883 19.1849 20.9261L19.9487 3.05111C19.9566 2.86589 19.901 2.6835 19.7911 2.53423C19.6811 2.38495 19.5234 2.27778 19.3442 2.23049L19.3312 2.22724L19.2905 2.21586L19.1329 2.17361L18.5869 2.01924C18.093 1.87982 17.6026 1.7281 17.1163 1.56424C16.8205 1.46024 16.6077 1.29449 16.2973 1.05074L16.1722 0.953238C15.826 0.683488 15.3077 0.299988 14.5634 0.299988H14.513C13.8793 0.299988 13.3609 0.551863 13.0148 0.784238C12.5746 0.477412 12.053 0.308811 11.5165 0.299988L11.4662 0.299988H11.4727ZM21.1252 7.25499C21.1252 7.64986 21.4079 7.98624 21.7979 8.05449L23.8942 8.42336C24.5279 8.42336 24.5279 5.17336 23.8942 5.17336L21.7979 5.54224C21.6096 5.57511 21.439 5.67328 21.316 5.8195C21.1929 5.96572 21.1254 6.15064 21.1252 6.34174V7.25174V7.25499ZM20.8002 12.13C20.8002 12.5249 21.0829 12.8612 21.4729 12.9295L23.5692 13.2984C24.2029 13.2984 24.2029 10.0484 23.5692 10.0484L21.4729 10.4172C21.2847 10.4501 21.114 10.5483 20.991 10.6945C20.8679 10.8407 20.8004 11.0256 20.8002 11.2167V12.1267V12.13ZM20.3127 17.0375C20.3127 17.4324 20.5954 17.7687 20.9854 17.837L23.0817 18.2059C23.7154 18.2059 23.7154 14.9559 23.0817 14.9559L20.9854 15.3247C20.7971 15.3576 20.6265 15.4558 20.5035 15.602C20.3804 15.7482 20.3129 15.9331 20.3127 16.1242V17.0342V17.0375ZM2.09641 8.42499L4.19266 8.05611C4.38091 8.02324 4.55155 7.92507 4.67459 7.77885C4.79763 7.63263 4.8652 7.44771 4.86541 7.25661V6.34661C4.8652 6.15551 4.79763 5.9706 4.67459 5.82438C4.55155 5.67816 4.38091 5.57998 4.19266 5.54711L2.09641 5.17824C1.46266 5.17824 1.46266 8.42824 2.09641 8.42824V8.42499ZM2.42141 13.3L4.51766 12.9311C4.70591 12.8982 4.87655 12.8001 4.99959 12.6538C5.12263 12.5076 5.1902 12.3227 5.19041 12.1316V11.2216C5.1902 11.0305 5.12263 10.8456 4.99959 10.6994C4.87655 10.5532 4.70591 10.455 4.51766 10.4221L2.42141 10.0532C1.78766 10.0532 1.78766 13.3032 2.42141 13.3032V13.3ZM5.02141 17.85L2.92516 18.2189C2.29141 18.2189 2.29141 14.9689 2.92516 14.9689L5.02141 15.3377C5.20966 15.3706 5.3803 15.4688 5.50334 15.615C5.62638 15.7612 5.69395 15.9461 5.69416 16.1372V17.0472C5.69416 17.4421 5.41141 17.7785 5.02141 17.8467V17.85Z" stroke="#7F122A" stroke-width="0.6" mask="url(#path-1-outside-1_271_207)"/>
</svg>
