<svg width="26" height="26" viewBox="0 0 26 26" fill="none" xmlns="http://www.w3.org/2000/svg">
<path fill-rule="evenodd" clip-rule="evenodd" d="M15.1666 3.25C15.4427 3.25031 15.7083 3.35604 15.909 3.54559C16.1098 3.73514 16.2306 3.9942 16.2468 4.26984C16.263 4.54549 16.1733 4.81691 15.9961 5.02865C15.8189 5.24039 15.5675 5.37647 15.2933 5.40908L15.1666 5.41667H14.0832V6.5H15.1687C15.4255 6.50108 15.6833 6.52708 15.9379 6.55958L16.3073 6.61375C16.706 6.68092 17.1913 6.78708 17.7265 6.95608C18.961 7.34349 20.1113 7.96021 21.1173 8.77392L21.2191 8.66667L21.9851 7.90075C22.18 7.70646 22.4416 7.59365 22.7167 7.58525C22.9918 7.57685 23.2598 7.67348 23.4663 7.85552C23.6727 8.03756 23.8021 8.29135 23.8282 8.56535C23.8543 8.83935 23.7752 9.11301 23.6068 9.33075L23.5169 9.43258L22.751 10.1985V17.3333C22.7509 18.7292 22.212 20.0711 21.2466 21.0793C20.2812 22.0874 18.9639 22.684 17.5694 22.7446L17.3332 22.75H8.66655C7.27072 22.7499 5.9288 22.211 4.92063 21.2456C3.91246 20.2802 3.31588 18.9629 3.2553 17.5684L3.24989 17.3333V10.1985L2.48397 9.43258C2.28968 9.23763 2.17687 8.97603 2.16847 8.70092C2.16007 8.42581 2.2567 8.15781 2.43874 7.95136C2.62078 7.74492 2.87457 7.6155 3.14857 7.5894C3.42257 7.5633 3.69623 7.64247 3.91397 7.81083L4.0158 7.90075L4.78172 8.66667C4.81639 8.70133 4.84961 8.73708 4.88139 8.77392C5.88735 7.96021 7.03772 7.34349 8.27222 6.95608C8.73704 6.81019 9.21117 6.69582 9.69139 6.61375L10.0608 6.55958C10.2313 6.53679 10.4026 6.51981 10.5743 6.50867L10.8311 6.5H11.9166V5.41667H10.8332C10.5571 5.41636 10.2915 5.31063 10.0907 5.12108C9.88996 4.93153 9.76913 4.67247 9.75295 4.39682C9.73677 4.12118 9.82645 3.84976 10.0037 3.63801C10.1809 3.42627 10.4323 3.2902 10.7065 3.25758L10.8332 3.25H15.1666ZM20.5832 12.1442C15.7126 13.0108 11.0358 13.0542 6.18355 12.2742L5.41655 12.1442V17.3333C5.41651 18.1623 5.73324 18.96 6.30195 19.5631C6.87065 20.1663 7.64834 20.5293 8.47589 20.5779L8.66655 20.5833H17.3332C18.1622 20.5834 18.9599 20.2666 19.563 19.6979C20.1661 19.1292 20.5292 18.3516 20.5778 17.524L20.5832 17.3333V12.1442ZM15.1622 8.66667L10.7856 8.66775L10.5906 8.68183L10.2656 8.71867L9.98714 8.762L9.83222 8.79125L9.49314 8.86492C8.4689 9.10609 7.50125 9.54392 6.64397 10.1541C10.8543 10.8303 15.1455 10.8303 19.3558 10.1541C18.6595 9.65951 17.8895 9.27783 17.0743 9.02308C16.4622 8.82917 15.8079 8.68075 15.1622 8.66667Z" fill="#7F122A"/>
</svg>
