<svg width="24" height="24" viewBox="0 0 24 24" fill="none" xmlns="http://www.w3.org/2000/svg">
<path d="M19.5 3H4.5C4.10218 3 3.72064 3.15804 3.43934 3.43934C3.15804 3.72064 3 4.10218 3 4.5V19.5C3 19.8978 3.15804 20.2794 3.43934 20.5607C3.72064 20.842 4.10218 21 4.5 21H19.5C19.8978 21 20.2794 20.842 20.5607 20.5607C20.842 20.2794 21 19.8978 21 19.5V4.5C21 4.10218 20.842 3.72064 20.5607 3.43934C20.2794 3.15804 19.8978 3 19.5 3Z" stroke="#7F122A" stroke-width="2" stroke-linecap="round" stroke-linejoin="round"/>
<path d="M9 11.5C9.66304 11.5 10.2989 11.2366 10.7678 10.7678C11.2366 10.2989 11.5 9.66304 11.5 9C11.5 8.33696 11.2366 7.70107 10.7678 7.23223C10.2989 6.76339 9.66304 6.5 9 6.5C8.33696 6.5 7.70107 6.76339 7.23223 7.23223C6.76339 7.70107 6.5 8.33696 6.5 9C6.5 9.66304 6.76339 10.2989 7.23223 10.7678C7.70107 11.2366 8.33696 11.5 9 11.5ZM13.895 13.11C13.9898 12.9831 14.1133 12.8806 14.2554 12.8108C14.3975 12.741 14.5542 12.706 14.7125 12.7085C14.8708 12.7111 15.0263 12.7513 15.1661 12.8257C15.3058 12.9001 15.4259 13.0066 15.5165 13.1365L19.904 19.428C20.366 20.091 19.8915 21 19.084 21H8L13.895 13.11Z" stroke="#7F122A" stroke-width="2" stroke-linecap="round" stroke-linejoin="round"/>
</svg>
