<svg width="26" height="26" viewBox="0 0 26 26" fill="none" xmlns="http://www.w3.org/2000/svg">
<path d="M10.8332 4.33335V8.66669H15.1665V4.33335H10.8332ZM17.3332 4.33335V8.66669H21.6665V4.33335H17.3332ZM17.3332 10.8334V15.1667H21.6665V10.8334H17.3332ZM17.3332 17.3334V21.6667H21.6665V17.3334H17.3332ZM15.1665 21.6667V17.3334H10.8332V21.6667H15.1665ZM8.6665 21.6667V17.3334H4.33317V21.6667H8.6665ZM8.6665 15.1667V10.8334H4.33317V15.1667H8.6665ZM8.6665 8.66669V4.33335H4.33317V8.66669H8.6665ZM10.8332 15.1667H15.1665V10.8334H10.8332V15.1667ZM4.33317 2.16669H21.6665C22.2411 2.16669 22.7922 2.39496 23.1986 2.80129C23.6049 3.20762 23.8332 3.75872 23.8332 4.33335V21.6667C23.8332 22.2413 23.6049 22.7924 23.1986 23.1988C22.7922 23.6051 22.2411 23.8334 21.6665 23.8334H4.33317C3.16317 23.8334 2.1665 22.8584 2.1665 21.6667V4.33335C2.1665 3.75872 2.39478 3.20762 2.80111 2.80129C3.20743 2.39496 3.75853 2.16669 4.33317 2.16669Z" fill="#7F122A"/>
</svg>
